<svg width="35" height="48" viewBox="0 0 35 48" fill="none" xmlns="http://www.w3.org/2000/svg">
<path d="M16.5504 0.268359L16.5504 19.8192L15.7833 19.8192L16.922 24.376L15.608 24.7036L14.387 19.8192L12.0894 19.8192L15.1373 24.8994L13.9756 25.5957L10.5101 19.8192L9.1693 19.8192L9.1693 18.465L15.1962 18.465L15.1962 16.9461L13.0002 16.9461L13.0002 15.5919L15.1962 15.5919L15.1962 14.0729L13.0002 14.0729L13.0002 12.7187L15.1962 12.7187L15.1962 11.1998L13.0002 11.1998L13.0002 9.84554L15.1962 9.84554L15.1962 8.3266L13.0002 8.3266L13.0002 6.97239L15.1962 6.97239L15.1962 5.45345L13.0002 5.45345L13.0002 4.09923L15.1962 4.09923L15.1962 1.62257L13.48 1.62257L7.36304 19.0329L7.25386 19.1421L8.21158 20.0998L7.25386 21.0576L6.29614 20.0998L4.51527 21.8807L12.7497 26.8216L12.0535 27.9833L3.74814 23.0003L2.46192 26.1052L11.8576 28.454L11.5301 29.768L2.21244 27.4388L2.21243 29.9576L3.56761 29.9576L3.56761 31.3118L2.21244 31.3118L2.21244 33.8306L11.5301 31.5015L11.8576 32.8155L2.46192 35.1643L3.74814 38.2692L12.0535 33.2862L12.7497 34.4479L4.51527 39.3888L6.29615 41.1696L7.25386 40.2119L8.21158 41.1696L7.25387 42.1274L9.03474 43.9082L13.9756 35.6738L15.1373 36.37L10.1543 44.6754L13.2592 45.9616L15.608 36.5659L16.922 36.8934L14.5929 46.2111L17.1117 46.2111L17.1117 44.8559L18.4659 44.8559L18.4659 46.2111L20.9847 46.2111L18.6555 36.8934L19.9695 36.5659L22.3183 45.9616L25.4232 44.6754L20.4402 36.37L21.6019 35.6738L26.5428 43.9082L28.3237 42.1274L27.366 41.1696L28.3237 40.2119L29.2814 41.1696L31.0623 39.3888L22.8278 34.4479L23.5241 33.2862L31.8294 38.2692L33.1156 35.1643L23.7199 32.8155L24.0475 31.5015L33.3651 33.8306L33.3651 31.3118L32.0099 31.3118L32.0099 29.9576L33.3651 29.9576L33.3651 27.4388L24.0475 29.768L23.7199 28.454L33.1156 26.1052L31.8294 23.0003L23.5241 27.9833L22.8278 26.8216L31.0623 21.8807L29.2814 20.0998L28.3237 21.0575L27.3659 20.0998L28.3237 19.1421L28.2145 19.0329L22.0975 1.62257L20.3813 1.62257L20.3813 4.09923L22.5774 4.09923L22.5774 5.45345L20.3813 5.45345L20.3813 6.97239L22.5774 6.97239L22.5774 8.3266L20.3813 8.3266L20.3813 9.84554L22.5774 9.84554L22.5774 11.1998L20.3813 11.1998L20.3813 12.7187L22.5774 12.7187L22.5774 14.0729L20.3813 14.0729L20.3813 15.5919L22.5774 15.5919L22.5774 16.9461L20.3813 16.9461L20.3813 18.465L26.4082 18.465L26.4082 19.8192L25.0674 19.8192L21.6019 25.5957L20.4402 24.8994L23.4881 19.8192L21.1906 19.8192L19.9695 24.7036L18.6555 24.376L19.7942 19.8192L19.0271 19.8192L19.0271 0.268359L23.0572 0.268356L29.3906 18.2936L32.7287 21.6317L34.7188 26.4366L34.7188 34.8329L32.7287 39.6378L26.7918 45.5747L21.9869 47.5648L13.5906 47.5648L8.78574 45.5747L2.84884 39.6378L0.858701 34.8329L0.858699 26.4366L2.84884 21.6317L6.18696 18.2936L12.5204 0.268358L16.5504 0.268359Z" fill="white"/>
</svg>
